<?xml version="1.0" encoding="iso-8859-1"?>
<!-- Uploaded to: SVG Repo, www.svgrepo.com, Generator: SVG Repo Mixer Tools -->
<!DOCTYPE svg PUBLIC "-//W3C//DTD SVG 1.1//EN" "http://www.w3.org/Graphics/SVG/1.1/DTD/svg11.dtd">
<svg fill="#000000" height="800px" width="800px" version="1.1" id="Capa_1" xmlns="http://www.w3.org/2000/svg" xmlns:xlink="http://www.w3.org/1999/xlink" 
	 viewBox="0 0 56.893 56.893" xml:space="preserve">
<path d="M36.666,33.935c1.066,1.7,2.757,2.674,4.649,2.674c0.001,0,0.001,0,0.001,0c0.88,0,1.751-0.21,2.59-0.626l3.313-1.169
	l-2.209-2.73c-0.897-1.432-2.241-2.34-3.773-2.594c1.162-0.087,2.275-0.532,3.238-1.344l2.938-1.927l-2.798-2.124
	c-0.633-0.613-1.37-1.029-2.145-1.291c0.649-0.488,1.209-1.122,1.628-1.895l2.03-2.863l-3.377-0.96
	c-0.748-0.313-1.516-0.472-2.282-0.472c-0.557,0-1.094,0.093-1.605,0.256c0.866-0.691,1.533-1.655,1.888-2.826l1.414-3.215
	l-3.503-0.258c-0.397-0.077-0.797-0.116-1.188-0.116c-2.465,0-4.522,1.566-5.26,3.996l-1.128,2.568
	c-0.697-0.804-1.459-1.547-2.279-2.225l2.711-1.44c2.797-1.08,4.183-3.826,3.39-6.718l-0.516-3.473l-3.102,1.647
	c-2.797,1.079-4.183,3.825-3.39,6.717l0.426,2.87c-0.93-0.72-1.934-1.348-2.995-1.887l1.325-2.411
	c1.75-2.435,1.406-5.492-0.841-7.479L23.482,0L21.79,3.076c-1.749,2.435-1.405,5.491,0.841,7.477l1.107,1.244
	c-0.243-0.096-0.482-0.201-0.731-0.287c-0.43-0.149-0.879,0.023-1.13,0.377l-1.818-2.091c-1.083-1.595-2.737-2.509-4.55-2.509
	c-0.945,0-1.873,0.243-2.76,0.723L9.481,9.296l2.305,2.65c1.083,1.595,2.737,2.509,4.55,2.509c0.282,0,0.561-0.029,0.839-0.072
	c-1.405,0.562-2.532,1.701-3.118,3.266l-1.617,3.117l3.479,0.483c0.518,0.136,1.039,0.204,1.551,0.205c0,0,0,0,0.001,0
	c0.91,0,1.761-0.221,2.515-0.619c-0.275,0.823-0.379,1.727-0.241,2.683l0.086,3.511l3.28-1.254c0.271-0.068,0.521-0.167,0.77-0.265
	c-0.08,0.269-0.157,0.54-0.202,0.83l-0.95,3.382l3.505-0.235c0.037,0.002,0.071-0.005,0.108-0.004
	c-0.556,0.499-1.027,1.122-1.38,1.856L23.075,34.3l3.422,0.789c0.365,0.132,0.733,0.221,1.103,0.282
	c-1.456,0.151-2.814,0.911-3.795,2.147l-2.496,2.471l3.163,1.526c0.961,0.615,2.029,0.94,3.094,0.94
	c1.655,0,3.229-0.793,4.328-2.179l0.139-0.137c-3.121,7.543-9.843,13.08-18.703,14.771c-0.542,0.104-0.898,0.627-0.795,1.17
	c0.092,0.479,0.511,0.813,0.981,0.813c0.063,0,0.125-0.006,0.188-0.018c9.01-1.72,15.967-7.133,19.559-14.568l-0.138,2.942
	c-0.496,2.958,1.159,5.55,4.052,6.341l3.251,1.327l0.164-3.509c0.496-2.957-1.16-5.549-4.052-6.341l-3.038-1.238
	c0.547-1.195,0.994-2.447,1.363-3.737l0.423,1.495c0.465,2.954,2.811,4.903,5.851,4.73l3.505,0.229l-0.956-3.38
	c-0.465-2.956-2.839-4.906-5.852-4.73l-2.517-0.163c0.234-1.098,0.409-2.221,0.511-3.371L36.666,33.935z M35.937,30.682
	c0.004-0.288,0.027-0.569,0.023-0.859c-0.015-0.979-0.106-1.944-0.258-2.89l1.253,0.953c0.86,0.832,1.899,1.357,2.993,1.548
	c-0.74,0.056-1.471,0.251-2.179,0.601L35.937,30.682z M34.54,22.712l2.459,0.698c0.153,0.064,0.308,0.118,0.463,0.169
	c-0.122,0.088-0.251,0.158-0.368,0.257l-1.799,1.18C35.089,24.228,34.836,23.46,34.54,22.712z M34.304,17.925
	c0.397,0.077,0.797,0.116,1.188,0.116c0,0,0,0,0.001,0c0.582,0,1.139-0.094,1.663-0.26c-0.596,0.475-1.109,1.082-1.502,1.805
	l-1.531,2.158c-0.659-1.438-1.48-2.786-2.449-4.015L34.304,17.925z M31.741,21.449l-2.22,0.148
	c-0.862-0.044-1.659,0.096-2.381,0.364c0.213-0.757,0.287-1.574,0.161-2.434l-0.085-3.454C29.069,17.53,30.603,19.365,31.741,21.449
	z M19.095,13.732l2.632-1.036c0.08,0.314,0.295,0.589,0.625,0.704c1.766,0.611,3.383,1.512,4.818,2.633l-3.235,1.236
	c-0.484,0.121-0.921,0.309-1.335,0.525c0,0,0-0.001,0-0.001l1.617-3.119l-3.479-0.483c-0.518-0.136-1.039-0.205-1.551-0.205
	c-0.258,0-0.51,0.024-0.758,0.057C18.655,13.954,18.876,13.851,19.095,13.732z M32.075,24.743l0.465-1.655
	c0.769,1.828,1.237,3.805,1.371,5.86l-1.985-0.458c-0.557-0.202-1.122-0.3-1.685-0.334C31.193,27.325,31.856,26.156,32.075,24.743z
	 M31.226,36.279c-0.694-0.444-1.444-0.731-2.208-0.86c1.916-0.171,3.553-1.322,4.444-3.179l0.454-0.712
	c-0.088,1.953-0.381,3.836-0.867,5.631L31.226,36.279z"/>
</svg>